# xmcd
#
# Track frame offsets:
#	150
#	16075
#	32547
#	51070
#	66295
#	84426
#	98761
#
# Disc length: 1539 seconds
#
# Revision: 0
# Processed by: cddbd v1.5.2PL0 Copyright (c) Steve Scherf et al.
# Submitted via: EZCDAudioConverter 7.1.0.1
#
DISCID=48060107
DTITLE=Megan and Liz - Simple Life
DYEAR=2014
DGENRE=Country
TTITLE0=Simple Life
TTITLE1=A Better Me
TTITLE2=Karma's Coming Back for Me
TTITLE3=New At This
TTITLE4=Night of Our Lives
TTITLE5=Switch Hearts
TTITLE6=Grave
EXTD=
EXTT0=
EXTT1=
EXTT2=
EXTT3=
EXTT4=
EXTT5=
EXTT6=
PLAYORDER=
